<?xml version="1.0" encoding="UTF-8" ?>
<!DOCTYPE svg PUBLIC "-//W3C//DTD SVG 1.1//EN" "http://www.w3.org/Graphics/SVG/1.1/DTD/svg11.dtd">
<svg viewBox="0 0 512 512" version="1.1" xmlns="http://www.w3.org/2000/svg">
<g id="#000000ff">
<path fill="#000000" opacity="1.00" d=" M 253.68 0.00 L 258.33 0.00 C 265.49 2.07 273.00 0.21 280.27 1.60 C 332.29 6.33 382.78 27.48 422.31 61.68 C 430.54 68.41 437.69 76.31 445.22 83.78 C 475.84 117.36 497.12 159.24 506.27 203.75 C 508.57 214.08 509.58 224.63 510.77 235.13 C 511.48 241.30 510.14 247.64 512.00 253.67 L 512.00 258.33 C 510.63 262.78 510.96 267.44 511.01 272.02 C 507.67 330.95 483.00 388.49 442.28 431.27 C 435.96 437.29 430.19 443.91 423.39 449.41 C 383.67 484.12 332.76 505.63 280.26 510.40 C 273.00 511.78 265.48 509.93 258.32 512.00 L 253.67 512.00 C 249.22 510.63 244.57 510.96 239.98 511.01 C 192.91 508.29 146.66 492.12 108.19 464.81 C 73.95 440.45 45.67 407.69 26.97 370.01 C 11.99 339.48 2.90 305.99 0.99 272.02 C 1.04 267.44 1.36 262.78 0.00 258.33 L 0.00 253.68 C 1.88 247.64 0.51 241.30 1.22 235.13 C 2.41 224.91 3.35 214.64 5.56 204.58 C 14.99 158.19 37.44 114.43 70.23 80.23 C 79.80 70.42 89.70 60.90 100.71 52.70 C 138.41 23.77 184.42 5.91 231.73 1.60 C 239.00 0.22 246.52 2.07 253.68 0.00 M 153.79 129.73 L 153.08 130.18 L 152.26 129.76 L 151.32 130.28 L 151.25 131.18 C 150.48 131.79 149.81 132.48 149.22 133.26 C 147.45 132.79 146.79 133.44 147.24 135.22 C 146.47 135.80 145.79 136.47 145.22 137.24 C 143.44 136.79 142.79 137.45 143.24 139.22 C 142.47 139.80 141.80 140.47 141.22 141.25 C 139.45 140.79 138.79 141.45 139.24 143.22 C 138.47 143.80 137.80 144.47 137.22 145.24 C 135.44 144.79 134.79 145.45 135.25 147.22 C 134.44 147.86 133.70 148.59 133.06 149.41 C 131.17 147.96 128.72 151.37 130.35 152.91 L 129.80 153.53 C 129.04 156.67 128.33 160.55 130.91 163.08 C 131.24 163.28 131.91 163.68 132.25 163.88 L 131.82 164.68 L 132.30 165.62 L 133.20 165.72 C 133.80 166.49 134.49 167.18 135.28 167.77 C 134.80 169.54 135.45 170.19 137.23 169.74 C 137.81 170.51 138.49 171.19 139.26 171.77 C 138.80 173.53 139.45 174.19 141.23 173.74 C 141.81 174.51 142.48 175.19 143.26 175.77 C 142.80 177.54 143.46 178.19 145.23 177.74 C 145.81 178.51 146.49 179.19 147.26 179.77 C 146.80 181.54 147.46 182.19 149.23 181.74 C 149.81 182.51 150.49 183.19 151.26 183.77 C 150.80 185.54 151.46 186.19 153.24 185.72 C 153.86 186.43 154.55 187.09 155.28 187.70 C 157.18 190.73 159.89 193.10 162.41 195.59 C 179.25 212.43 196.13 229.21 212.94 246.07 C 215.30 248.43 217.47 251.12 220.52 252.64 C 220.76 252.95 221.22 253.58 221.46 253.89 C 221.00 256.30 220.59 258.72 220.16 261.13 C 219.55 261.88 218.94 262.62 218.33 263.38 C 216.56 262.78 215.85 263.39 216.22 265.20 C 215.46 265.79 214.79 266.47 214.22 267.25 C 212.45 266.79 211.79 267.44 212.24 269.22 C 211.47 269.79 210.79 270.47 210.21 271.25 C 208.44 270.79 207.78 271.45 208.24 273.22 C 207.47 273.80 206.80 274.47 206.22 275.24 C 204.45 274.78 203.79 275.44 204.24 277.21 C 203.47 277.79 202.79 278.47 202.22 279.25 C 200.44 278.79 199.79 279.45 200.25 281.22 C 199.47 281.80 198.80 282.47 198.22 283.24 C 196.44 282.78 195.79 283.44 196.24 285.21 C 195.47 285.79 194.79 286.47 194.21 287.24 C 192.44 286.79 191.79 287.45 192.25 289.22 C 191.47 289.80 190.79 290.47 190.21 291.25 C 188.44 290.79 187.78 291.44 188.24 293.22 C 187.47 293.80 186.79 294.47 186.22 295.25 C 184.45 294.79 183.79 295.44 184.24 297.22 C 183.47 297.79 182.80 298.47 182.22 299.25 C 180.45 298.78 179.79 299.44 180.24 301.21 C 179.47 301.79 178.80 302.47 178.22 303.24 C 176.45 302.78 175.79 303.44 176.25 305.22 C 175.47 305.79 174.80 306.47 174.22 307.24 C 172.44 306.79 171.79 307.44 172.25 309.22 C 171.47 309.79 170.80 310.47 170.22 311.24 C 168.45 310.78 167.79 311.44 168.24 313.21 C 167.47 313.79 166.80 314.47 166.22 315.24 C 164.45 314.78 163.79 315.44 164.24 317.22 C 163.47 317.79 162.80 318.47 162.22 319.24 C 160.45 318.78 159.79 319.44 160.24 321.22 C 159.47 321.79 158.79 322.47 158.21 323.24 C 156.44 322.79 155.79 323.44 156.25 325.22 C 155.47 325.79 154.80 326.47 154.22 327.25 C 152.45 326.78 151.79 327.44 152.24 329.22 C 151.47 329.79 150.80 330.47 150.22 331.24 C 148.45 330.79 147.79 331.45 148.25 333.22 C 147.47 333.79 146.80 334.47 146.21 335.25 C 144.44 334.79 143.79 335.44 144.24 337.22 C 143.47 337.79 142.80 338.47 142.22 339.24 C 140.44 338.78 139.79 339.44 140.25 341.21 C 139.47 341.79 138.80 342.47 138.22 343.24 C 136.44 342.79 135.79 343.44 136.24 345.22 C 135.47 345.80 134.80 346.47 134.22 347.25 C 132.45 346.78 131.78 347.44 132.23 349.22 C 131.96 349.46 131.42 349.94 131.15 350.18 L 130.25 350.30 L 129.78 351.27 L 130.23 352.07 L 129.73 352.76 C 129.11 355.78 128.26 359.66 130.95 361.95 C 131.22 362.18 131.75 362.63 132.02 362.85 C 133.84 367.12 137.94 369.69 140.94 373.05 C 143.95 375.74 146.24 379.53 150.20 380.91 C 151.04 381.72 151.93 382.47 152.81 383.25 C 156.85 384.24 162.12 384.58 164.90 380.84 C 165.60 380.20 166.22 379.50 166.77 378.73 C 168.54 379.20 169.20 378.55 168.76 376.79 C 169.53 376.20 170.20 375.52 170.79 374.75 C 172.55 375.20 173.21 374.55 172.75 372.78 C 173.52 372.20 174.20 371.52 174.79 370.75 C 176.55 371.21 177.21 370.55 176.76 368.79 C 177.53 368.20 178.20 367.52 178.79 366.75 C 180.55 367.20 181.21 366.54 180.75 364.78 C 181.52 364.20 182.20 363.52 182.79 362.75 C 184.55 363.20 185.21 362.55 184.75 360.78 C 185.52 360.20 186.20 359.52 186.79 358.76 C 188.55 359.21 189.21 358.55 188.75 356.79 C 189.52 356.20 190.20 355.52 190.79 354.75 C 192.55 355.21 193.21 354.55 192.76 352.79 C 193.53 352.20 194.20 351.52 194.79 350.76 C 196.56 351.20 197.21 350.54 196.75 348.78 C 197.52 348.20 198.20 347.52 198.79 346.75 C 200.55 347.21 201.21 346.55 200.75 344.79 C 201.52 344.20 202.20 343.52 202.78 342.75 C 204.55 343.21 205.21 342.55 204.75 340.79 C 205.52 340.20 206.20 339.52 206.78 338.75 C 208.55 339.21 209.21 338.55 208.75 336.79 C 209.52 336.20 210.20 335.52 210.79 334.75 C 212.55 335.21 213.21 334.55 212.76 332.79 C 213.52 332.20 214.20 331.52 214.78 330.75 C 216.55 331.20 217.21 330.55 216.75 328.78 C 217.52 328.20 218.20 327.52 218.78 326.76 C 220.55 327.21 221.21 326.55 220.75 324.79 C 221.52 324.20 222.20 323.52 222.79 322.75 C 224.55 323.21 225.21 322.55 224.76 320.79 C 225.53 320.20 226.20 319.52 226.79 318.75 C 228.55 319.20 229.21 318.55 228.76 316.78 C 229.52 316.20 230.20 315.52 230.78 314.75 C 232.55 315.21 233.20 314.55 232.75 312.79 C 233.52 312.20 234.20 311.53 234.78 310.76 C 236.55 311.21 237.21 310.55 236.75 308.79 C 237.52 308.20 238.20 307.52 238.79 306.75 C 240.55 307.21 241.21 306.55 240.76 304.78 C 241.53 304.20 242.20 303.52 242.79 302.75 C 244.55 303.21 245.21 302.55 244.76 300.79 C 245.53 300.20 246.20 299.52 246.78 298.75 C 248.55 299.21 249.21 298.55 248.75 296.79 C 249.53 296.20 250.21 295.51 250.80 294.74 C 252.54 295.16 253.20 294.50 252.77 292.76 C 253.36 292.45 254.53 291.81 255.11 291.50 C 256.32 292.59 257.56 292.63 258.82 291.60 C 259.62 292.35 260.46 293.06 261.33 293.73 C 260.81 295.51 261.44 296.18 263.23 295.75 C 263.81 296.51 264.49 297.19 265.27 297.77 C 264.80 299.53 265.46 300.19 267.23 299.74 C 267.81 300.51 268.48 301.19 269.26 301.77 C 268.80 303.53 269.46 304.19 271.23 303.74 C 271.81 304.51 272.49 305.18 273.26 305.77 C 272.80 307.53 273.46 308.19 275.23 307.73 C 275.81 308.51 276.48 309.19 277.26 309.77 C 276.81 311.54 277.47 312.19 279.24 311.72 C 279.79 312.47 280.41 313.15 281.11 313.78 C 282.33 316.75 285.29 318.34 287.43 320.58 C 305.55 338.78 323.81 356.85 341.93 375.07 C 344.15 377.24 346.11 379.93 349.20 380.91 C 350.03 381.72 350.94 382.47 351.83 383.24 C 355.90 384.32 361.10 384.48 363.99 380.86 C 364.20 380.59 364.61 380.05 364.81 379.77 C 366.58 380.20 367.23 379.54 366.74 377.78 C 367.51 377.20 368.20 376.52 368.79 375.75 C 370.55 376.20 371.21 375.55 370.75 373.78 C 371.52 373.20 372.20 372.52 372.78 371.75 C 374.55 372.21 375.20 371.55 374.75 369.79 C 375.52 369.20 376.20 368.53 376.79 367.76 C 378.56 368.20 379.21 367.54 378.74 365.78 C 379.51 365.18 380.22 364.51 380.87 363.77 L 381.76 363.58 L 382.13 362.57 L 381.58 361.80 C 381.96 361.35 382.71 360.46 383.09 360.01 C 384.30 356.93 384.60 352.55 382.05 350.05 C 381.78 349.82 381.25 349.37 380.98 349.14 C 379.75 345.91 376.90 343.82 374.57 341.43 C 357.70 324.63 340.93 307.74 324.09 290.92 C 321.39 288.23 318.90 285.29 315.67 283.23 C 315.43 282.98 314.97 282.48 314.73 282.23 C 315.20 280.45 314.55 279.79 312.78 280.27 C 312.19 279.49 311.51 278.81 310.74 278.23 C 311.19 276.46 310.54 275.80 308.77 276.26 C 308.19 275.48 307.51 274.81 306.74 274.23 C 307.19 272.46 306.54 271.80 304.77 272.26 C 304.19 271.48 303.51 270.80 302.73 270.23 C 303.19 268.46 302.53 267.80 300.77 268.26 C 300.18 267.48 299.50 266.81 298.73 266.23 C 299.19 264.46 298.54 263.80 296.77 264.26 C 296.19 263.48 295.51 262.80 294.73 262.22 C 295.15 260.47 294.50 259.81 292.76 260.24 C 292.44 259.65 291.81 258.48 291.49 257.89 C 292.61 256.68 292.67 255.44 291.66 254.16 C 291.92 253.81 292.44 253.12 292.70 252.77 C 294.46 253.23 295.15 252.57 294.75 250.80 C 295.52 250.21 296.19 249.53 296.78 248.75 C 298.55 249.21 299.21 248.55 298.75 246.79 C 299.52 246.20 300.20 245.52 300.79 244.75 C 302.55 245.21 303.21 244.55 302.76 242.79 C 303.52 242.20 304.20 241.52 304.78 240.75 C 306.55 241.21 307.21 240.55 306.75 238.79 C 307.52 238.20 308.20 237.52 308.79 236.75 C 310.55 237.21 311.21 236.55 310.76 234.79 C 311.52 234.20 312.20 233.53 312.79 232.76 C 314.56 233.21 315.21 232.55 314.75 230.78 C 315.52 230.20 316.20 229.53 316.79 228.76 C 318.55 229.21 319.21 228.55 318.75 226.79 C 319.52 226.20 320.20 225.53 320.79 224.76 C 322.55 225.20 323.21 224.55 322.75 222.78 C 323.52 222.20 324.20 221.52 324.79 220.75 C 326.55 221.21 327.21 220.55 326.75 218.78 C 327.52 218.20 328.20 217.52 328.78 216.75 C 330.55 217.21 331.20 216.55 330.76 214.79 C 331.52 214.20 332.20 213.52 332.79 212.75 C 334.55 213.21 335.21 212.55 334.76 210.79 C 335.52 210.20 336.20 209.52 336.79 208.75 C 338.55 209.21 339.21 208.55 338.75 206.78 C 339.52 206.20 340.20 205.52 340.79 204.75 C 342.55 205.21 343.21 204.55 342.76 202.79 C 343.52 202.20 344.20 201.53 344.79 200.76 C 346.55 201.21 347.21 200.55 346.75 198.78 C 347.52 198.20 348.20 197.52 348.79 196.75 C 350.55 197.21 351.21 196.55 350.75 194.79 C 351.52 194.20 352.20 193.52 352.79 192.75 C 354.55 193.21 355.21 192.55 354.75 190.78 C 355.52 190.20 356.20 189.52 356.79 188.75 C 358.55 189.21 359.21 188.55 358.75 186.78 C 359.52 186.20 360.20 185.53 360.79 184.76 C 362.55 185.21 363.21 184.55 362.75 182.79 C 363.52 182.20 364.20 181.52 364.79 180.75 C 366.55 181.21 367.21 180.55 366.75 178.79 C 367.52 178.20 368.20 177.52 368.79 176.75 C 370.55 177.21 371.20 176.55 370.75 174.79 C 371.52 174.20 372.20 173.53 372.79 172.76 C 374.55 173.21 375.21 172.55 374.76 170.79 C 375.52 170.20 376.20 169.52 376.79 168.75 C 378.55 169.20 379.21 168.55 378.74 166.78 C 379.51 166.18 380.23 165.51 380.87 164.77 L 381.76 164.57 L 382.13 163.56 L 381.58 162.79 C 381.96 162.35 382.74 161.45 383.12 161.01 C 384.21 157.91 384.71 153.47 381.99 151.08 C 381.74 150.84 381.23 150.37 380.98 150.13 C 379.16 145.87 375.05 143.31 372.06 139.95 C 368.70 136.95 366.14 132.81 361.80 131.12 C 359.17 129.00 355.25 130.12 352.11 130.19 L 351.30 129.77 L 350.36 130.28 L 350.27 131.18 C 349.49 131.78 348.81 132.48 348.22 133.26 C 346.44 132.79 345.78 133.44 346.24 135.22 C 345.47 135.80 344.79 136.47 344.21 137.24 C 342.44 136.79 341.78 137.45 342.24 139.22 C 341.47 139.80 340.79 140.47 340.22 141.24 C 338.44 140.79 337.78 141.45 338.25 143.22 C 337.47 143.80 336.79 144.47 336.22 145.24 C 334.44 144.79 333.78 145.44 334.24 147.21 C 333.47 147.79 332.79 148.47 332.22 149.24 C 330.44 148.79 329.79 149.44 330.24 151.21 C 329.47 151.80 328.79 152.47 328.22 153.25 C 326.45 152.78 325.79 153.44 326.24 155.21 C 325.47 155.79 324.79 156.47 324.22 157.25 C 322.44 156.79 321.79 157.45 322.24 159.22 C 321.47 159.80 320.79 160.48 320.21 161.25 C 318.44 160.79 317.78 161.45 318.24 163.22 C 317.47 163.80 316.79 164.47 316.22 165.24 C 314.44 164.79 313.78 165.45 314.24 167.22 C 313.47 167.80 312.79 168.47 312.22 169.25 C 310.45 168.79 309.79 169.44 310.24 171.22 C 309.47 171.80 308.80 172.47 308.22 173.24 C 306.45 172.79 305.79 173.44 306.25 175.22 C 305.47 175.79 304.80 176.47 304.22 177.24 C 302.45 176.78 301.79 177.44 302.24 179.21 C 301.47 179.79 300.79 180.47 300.22 181.24 C 298.44 180.79 297.78 181.45 298.24 183.22 C 297.47 183.80 296.79 184.47 296.22 185.24 C 294.44 184.79 293.78 185.45 294.24 187.22 C 293.47 187.80 292.79 188.47 292.22 189.25 C 290.45 188.78 289.79 189.44 290.24 191.21 C 289.47 191.79 288.79 192.47 288.21 193.24 C 286.44 192.79 285.78 193.45 286.25 195.22 C 285.47 195.80 284.79 196.47 284.22 197.24 C 282.44 196.78 281.79 197.44 282.24 199.21 C 281.47 199.79 280.79 200.47 280.22 201.25 C 278.45 200.79 277.79 201.44 278.24 203.22 C 277.47 203.79 276.79 204.47 276.22 205.24 C 274.44 204.79 273.78 205.44 274.24 207.22 C 273.47 207.79 272.79 208.47 272.22 209.24 C 270.44 208.79 269.78 209.45 270.25 211.22 C 269.47 211.80 268.79 212.47 268.22 213.25 C 266.44 212.79 265.79 213.45 266.24 215.22 C 265.47 215.80 264.78 216.47 264.19 217.24 C 262.40 216.90 261.80 217.60 262.38 219.36 C 262.08 219.55 261.49 219.94 261.20 220.14 C 258.76 220.58 256.32 221.00 253.89 221.46 C 253.58 221.22 252.95 220.76 252.64 220.52 C 251.91 219.24 251.13 217.97 250.10 216.92 C 232.02 198.99 214.10 180.90 196.08 162.91 C 193.40 160.25 190.94 157.30 187.70 155.29 C 187.09 154.55 186.43 153.86 185.72 153.23 C 186.19 151.46 185.54 150.80 183.77 151.26 C 183.18 150.49 182.51 149.81 181.74 149.23 C 182.20 147.46 181.54 146.81 179.77 147.26 C 179.19 146.49 178.51 145.81 177.74 145.23 C 178.20 143.46 177.54 142.81 175.77 143.26 C 175.19 142.49 174.51 141.81 173.74 141.23 C 174.19 139.46 173.54 138.80 171.77 139.27 C 171.19 138.49 170.51 137.81 169.74 137.23 C 170.20 135.46 169.54 134.81 167.77 135.27 C 167.18 134.49 166.49 133.80 165.72 133.20 L 165.62 132.30 L 164.68 131.82 L 163.87 132.25 C 163.67 131.91 163.28 131.24 163.08 130.91 C 160.63 128.38 156.86 129.04 153.79 129.73 Z" />
</g>
<g id="#ffffffff">
<path fill="#ffffff" opacity="1.00" d=" M 153.08 130.18 L 153.79 129.73 C 156.91 129.87 160.01 130.27 163.08 130.91 C 163.28 131.24 163.67 131.91 163.87 132.25 C 164.34 132.49 165.26 132.96 165.72 133.20 C 166.49 133.80 167.18 134.49 167.77 135.27 C 168.16 136.19 168.82 136.84 169.74 137.23 C 170.51 137.81 171.19 138.49 171.77 139.27 C 172.16 140.18 172.82 140.84 173.74 141.23 C 174.51 141.81 175.19 142.49 175.77 143.26 C 176.16 144.18 176.82 144.84 177.74 145.23 C 178.51 145.81 179.19 146.49 179.77 147.26 C 180.16 148.18 180.81 148.84 181.74 149.23 C 182.51 149.81 183.18 150.49 183.77 151.26 C 184.16 152.17 184.81 152.83 185.72 153.23 C 186.43 153.86 187.09 154.55 187.70 155.29 C 194.61 163.35 202.59 170.41 209.95 178.05 C 219.76 188.57 230.14 198.53 240.25 208.75 C 244.34 212.71 248.07 217.08 252.64 220.52 C 252.95 220.76 253.58 221.22 253.89 221.46 C 256.41 222.72 259.12 221.78 261.20 220.14 C 261.49 219.94 262.08 219.55 262.38 219.36 C 263.26 218.89 263.86 218.19 264.19 217.24 C 264.78 216.47 265.47 215.80 266.24 215.22 C 267.16 214.82 267.82 214.16 268.22 213.25 C 268.79 212.47 269.47 211.80 270.25 211.22 C 271.16 210.82 271.82 210.16 272.22 209.24 C 272.79 208.47 273.47 207.79 274.24 207.22 C 275.16 206.82 275.82 206.16 276.22 205.24 C 276.79 204.47 277.47 203.79 278.24 203.22 C 279.16 202.82 279.82 202.16 280.22 201.25 C 280.79 200.47 281.47 199.79 282.24 199.21 C 283.16 198.82 283.82 198.16 284.22 197.24 C 284.79 196.47 285.47 195.80 286.25 195.22 C 287.16 194.82 287.82 194.16 288.21 193.24 C 288.79 192.47 289.47 191.79 290.24 191.21 C 291.16 190.82 291.82 190.16 292.22 189.25 C 292.79 188.47 293.47 187.80 294.24 187.22 C 295.16 186.82 295.82 186.16 296.22 185.24 C 296.79 184.47 297.47 183.80 298.24 183.22 C 299.16 182.82 299.82 182.16 300.22 181.24 C 300.79 180.47 301.47 179.79 302.24 179.21 C 303.16 178.82 303.82 178.16 304.22 177.24 C 304.80 176.47 305.47 175.79 306.25 175.22 C 307.16 174.82 307.82 174.16 308.22 173.24 C 308.80 172.47 309.47 171.80 310.24 171.22 C 311.16 170.82 311.82 170.17 312.22 169.25 C 312.79 168.47 313.47 167.80 314.24 167.22 C 315.16 166.82 315.82 166.16 316.22 165.24 C 316.79 164.47 317.47 163.80 318.24 163.22 C 319.16 162.82 319.82 162.17 320.21 161.25 C 320.79 160.48 321.47 159.80 322.24 159.22 C 323.16 158.82 323.82 158.16 324.22 157.25 C 324.79 156.47 325.47 155.79 326.24 155.21 C 327.16 154.82 327.82 154.16 328.22 153.25 C 328.79 152.47 329.47 151.80 330.24 151.21 C 331.16 150.82 331.82 150.16 332.22 149.24 C 332.79 148.47 333.47 147.79 334.24 147.21 C 335.16 146.82 335.82 146.16 336.22 145.24 C 336.79 144.47 337.47 143.80 338.25 143.22 C 339.16 142.82 339.82 142.16 340.22 141.24 C 340.79 140.47 341.47 139.80 342.24 139.22 C 343.16 138.82 343.82 138.16 344.21 137.24 C 344.79 136.47 345.47 135.80 346.24 135.22 C 347.15 134.83 347.81 134.17 348.22 133.26 C 348.81 132.48 349.49 131.78 350.27 131.18 C 350.73 130.93 351.65 130.44 352.11 130.19 C 355.25 130.12 359.17 129.00 361.80 131.12 C 368.08 137.57 374.28 144.12 380.98 150.13 C 381.23 150.37 381.74 150.84 381.99 151.08 C 383.08 154.27 383.12 157.67 383.12 161.01 C 382.74 161.45 381.96 162.35 381.58 162.79 C 381.40 163.29 381.05 164.28 380.87 164.77 C 380.23 165.51 379.51 166.18 378.74 166.78 C 377.82 167.18 377.17 167.83 376.79 168.75 C 376.20 169.52 375.52 170.20 374.76 170.79 C 373.83 171.18 373.17 171.83 372.79 172.76 C 372.20 173.53 371.52 174.20 370.75 174.79 C 369.83 175.17 369.17 175.83 368.79 176.75 C 368.20 177.52 367.52 178.20 366.75 178.79 C 365.83 179.17 365.17 179.83 364.79 180.75 C 364.20 181.52 363.52 182.20 362.75 182.79 C 361.83 183.18 361.17 183.83 360.79 184.76 C 360.20 185.53 359.52 186.20 358.75 186.78 C 357.83 187.17 357.17 187.83 356.79 188.75 C 356.20 189.52 355.52 190.20 354.75 190.78 C 353.83 191.17 353.17 191.83 352.79 192.75 C 352.20 193.52 351.52 194.20 350.75 194.79 C 349.83 195.17 349.17 195.83 348.79 196.75 C 348.20 197.52 347.52 198.20 346.75 198.78 C 345.83 199.17 345.17 199.83 344.79 200.76 C 344.20 201.53 343.52 202.20 342.76 202.79 C 341.83 203.17 341.17 203.83 340.79 204.75 C 340.20 205.52 339.52 206.20 338.75 206.78 C 337.83 207.17 337.17 207.83 336.79 208.75 C 336.20 209.52 335.52 210.20 334.76 210.79 C 333.83 211.17 333.17 211.83 332.79 212.75 C 332.20 213.52 331.52 214.20 330.76 214.79 C 329.83 215.17 329.17 215.83 328.78 216.75 C 328.20 217.52 327.52 218.20 326.75 218.78 C 325.83 219.17 325.17 219.83 324.79 220.75 C 324.20 221.52 323.52 222.20 322.75 222.78 C 321.83 223.17 321.17 223.83 320.79 224.76 C 320.20 225.53 319.52 226.20 318.75 226.79 C 317.83 227.18 317.17 227.83 316.79 228.76 C 316.20 229.53 315.52 230.20 314.75 230.78 C 313.83 231.18 313.17 231.83 312.79 232.76 C 312.20 233.53 311.52 234.20 310.76 234.79 C 309.83 235.17 309.17 235.83 308.79 236.75 C 308.20 237.52 307.52 238.20 306.75 238.79 C 305.83 239.17 305.17 239.83 304.78 240.75 C 304.20 241.52 303.52 242.20 302.76 242.79 C 301.83 243.17 301.18 243.83 300.79 244.75 C 300.20 245.52 299.52 246.20 298.75 246.79 C 297.83 247.17 297.17 247.83 296.78 248.75 C 296.19 249.53 295.52 250.21 294.75 250.80 C 293.81 251.19 293.12 251.85 292.70 252.77 C 292.44 253.12 291.92 253.81 291.66 254.16 C 290.48 255.12 290.52 256.80 291.49 257.89 C 291.81 258.48 292.44 259.65 292.76 260.24 C 293.11 261.19 293.76 261.85 294.73 262.22 C 295.51 262.80 296.19 263.48 296.77 264.26 C 297.16 265.18 297.81 265.83 298.73 266.23 C 299.50 266.81 300.18 267.48 300.77 268.26 C 301.15 269.18 301.81 269.83 302.73 270.23 C 303.51 270.80 304.19 271.48 304.77 272.26 C 305.16 273.18 305.81 273.83 306.74 274.23 C 307.51 274.81 308.19 275.48 308.77 276.26 C 309.16 277.18 309.81 277.83 310.74 278.23 C 311.51 278.81 312.19 279.49 312.78 280.27 C 313.17 281.17 313.82 281.83 314.73 282.23 C 314.97 282.48 315.43 282.98 315.67 283.23 C 321.10 289.80 327.55 295.41 333.45 301.55 C 349.12 317.58 364.76 333.67 380.98 349.14 C 381.25 349.37 381.78 349.82 382.05 350.05 C 382.94 353.29 383.07 356.66 383.09 360.01 C 382.71 360.46 381.96 361.35 381.58 361.80 C 381.40 362.29 381.05 363.28 380.87 363.77 C 380.22 364.51 379.51 365.18 378.74 365.78 C 377.82 366.18 377.17 366.84 376.79 367.76 C 376.20 368.53 375.52 369.20 374.75 369.79 C 373.83 370.17 373.17 370.83 372.78 371.75 C 372.20 372.52 371.52 373.20 370.75 373.78 C 369.83 374.17 369.17 374.83 368.79 375.75 C 368.20 376.52 367.51 377.20 366.74 377.78 C 365.82 378.18 365.18 378.84 364.81 379.77 C 364.61 380.05 364.20 380.59 363.99 380.86 C 360.23 382.84 356.00 383.20 351.83 383.24 C 350.94 382.47 350.03 381.72 349.20 380.91 C 337.06 368.34 324.57 356.11 312.21 343.77 C 301.49 334.14 292.17 323.02 281.11 313.78 C 280.41 313.15 279.79 312.47 279.24 311.72 C 278.84 310.81 278.18 310.16 277.26 309.77 C 276.48 309.19 275.81 308.51 275.23 307.73 C 274.84 306.81 274.18 306.15 273.26 305.77 C 272.49 305.18 271.81 304.51 271.23 303.74 C 270.84 302.81 270.18 302.16 269.26 301.77 C 268.48 301.19 267.81 300.51 267.23 299.74 C 266.84 298.81 266.18 298.16 265.27 297.77 C 264.49 297.19 263.81 296.51 263.23 295.75 C 262.85 294.83 262.21 294.16 261.33 293.73 C 260.46 293.06 259.62 292.35 258.82 291.60 C 257.90 290.34 256.17 290.59 255.11 291.50 C 254.53 291.81 253.36 292.45 252.77 292.76 C 251.81 293.11 251.16 293.77 250.80 294.74 C 250.21 295.51 249.53 296.20 248.75 296.79 C 247.83 297.17 247.17 297.83 246.78 298.75 C 246.20 299.52 245.53 300.20 244.76 300.79 C 243.83 301.17 243.18 301.83 242.79 302.75 C 242.20 303.52 241.53 304.20 240.76 304.78 C 239.83 305.17 239.18 305.83 238.79 306.75 C 238.20 307.52 237.52 308.20 236.75 308.79 C 235.83 309.18 235.17 309.83 234.78 310.76 C 234.20 311.53 233.52 312.20 232.75 312.79 C 231.83 313.17 231.17 313.83 230.78 314.75 C 230.20 315.52 229.52 316.20 228.76 316.78 C 227.83 317.17 227.18 317.83 226.79 318.75 C 226.20 319.52 225.53 320.20 224.76 320.79 C 223.83 321.17 223.18 321.83 222.79 322.75 C 222.20 323.52 221.52 324.20 220.75 324.79 C 219.83 325.17 219.17 325.83 218.78 326.76 C 218.20 327.52 217.52 328.20 216.75 328.78 C 215.83 329.17 215.17 329.83 214.78 330.75 C 214.20 331.52 213.52 332.20 212.76 332.79 C 211.83 333.17 211.18 333.83 210.79 334.75 C 210.20 335.52 209.52 336.20 208.75 336.79 C 207.83 337.17 207.17 337.83 206.78 338.75 C 206.20 339.52 205.52 340.20 204.75 340.79 C 203.83 341.17 203.17 341.83 202.78 342.75 C 202.20 343.52 201.52 344.20 200.75 344.79 C 199.83 345.17 199.18 345.83 198.79 346.75 C 198.20 347.52 197.52 348.20 196.75 348.78 C 195.83 349.17 195.17 349.83 194.79 350.76 C 194.20 351.52 193.53 352.20 192.76 352.79 C 191.83 353.17 191.18 353.83 190.79 354.75 C 190.20 355.52 189.52 356.20 188.75 356.79 C 187.83 357.17 187.18 357.83 186.79 358.76 C 186.20 359.52 185.52 360.20 184.75 360.78 C 183.83 361.17 183.17 361.83 182.79 362.75 C 182.20 363.52 181.52 364.20 180.75 364.78 C 179.83 365.17 179.17 365.83 178.79 366.75 C 178.20 367.52 177.53 368.20 176.76 368.79 C 175.83 369.17 175.18 369.83 174.79 370.75 C 174.20 371.52 173.52 372.20 172.75 372.78 C 171.83 373.17 171.18 373.83 170.79 374.75 C 170.20 375.52 169.53 376.20 168.76 376.79 C 167.84 377.17 167.18 377.82 166.77 378.73 C 166.22 379.50 165.60 380.20 164.90 380.84 C 161.19 382.90 156.97 383.33 152.81 383.25 C 151.93 382.47 151.04 381.72 150.20 380.91 C 144.29 374.75 138.37 368.57 132.02 362.85 C 131.75 362.63 131.22 362.18 130.95 361.95 C 130.24 358.93 129.86 355.85 129.73 352.76 L 130.23 352.07 C 130.46 351.59 130.92 350.65 131.15 350.18 C 131.42 349.94 131.96 349.46 132.23 349.22 C 133.15 348.82 133.81 348.17 134.22 347.25 C 134.80 346.47 135.47 345.80 136.24 345.22 C 137.16 344.82 137.82 344.16 138.22 343.24 C 138.80 342.47 139.47 341.79 140.25 341.21 C 141.16 340.81 141.82 340.16 142.22 339.24 C 142.80 338.47 143.47 337.79 144.24 337.22 C 145.16 336.82 145.82 336.16 146.21 335.25 C 146.80 334.47 147.47 333.79 148.25 333.22 C 149.17 332.82 149.82 332.16 150.22 331.24 C 150.80 330.47 151.47 329.79 152.24 329.22 C 153.16 328.82 153.82 328.16 154.22 327.25 C 154.80 326.47 155.47 325.79 156.25 325.22 C 157.16 324.82 157.82 324.16 158.21 323.24 C 158.79 322.47 159.47 321.79 160.24 321.22 C 161.16 320.82 161.82 320.16 162.22 319.24 C 162.80 318.47 163.47 317.79 164.24 317.22 C 165.16 316.82 165.82 316.16 166.22 315.24 C 166.80 314.47 167.47 313.79 168.24 313.21 C 169.16 312.82 169.82 312.16 170.22 311.24 C 170.80 310.47 171.47 309.79 172.25 309.22 C 173.16 308.82 173.82 308.16 174.22 307.24 C 174.80 306.47 175.47 305.79 176.25 305.22 C 177.16 304.82 177.82 304.16 178.22 303.24 C 178.80 302.47 179.47 301.79 180.24 301.21 C 181.16 300.82 181.82 300.16 182.22 299.25 C 182.80 298.47 183.47 297.79 184.24 297.22 C 185.16 296.82 185.82 296.16 186.22 295.25 C 186.79 294.47 187.47 293.80 188.24 293.22 C 189.16 292.82 189.82 292.16 190.21 291.25 C 190.79 290.47 191.47 289.80 192.25 289.22 C 193.16 288.82 193.82 288.16 194.21 287.24 C 194.79 286.47 195.47 285.79 196.24 285.21 C 197.16 284.82 197.82 284.16 198.22 283.24 C 198.80 282.47 199.47 281.80 200.25 281.22 C 201.16 280.82 201.82 280.16 202.22 279.25 C 202.79 278.47 203.47 277.79 204.24 277.21 C 205.16 276.82 205.82 276.16 206.22 275.24 C 206.80 274.47 207.47 273.80 208.24 273.22 C 209.16 272.82 209.82 272.16 210.21 271.25 C 210.79 270.47 211.47 269.79 212.24 269.22 C 213.16 268.82 213.82 268.16 214.22 267.25 C 214.79 266.47 215.46 265.79 216.22 265.20 C 217.14 264.84 217.84 264.23 218.33 263.38 C 218.94 262.62 219.55 261.88 220.16 261.13 C 221.92 259.14 222.66 256.37 221.46 253.89 C 221.22 253.58 220.76 252.95 220.52 252.64 C 215.68 246.49 209.63 241.42 204.25 235.75 C 190.74 221.93 176.60 208.75 163.07 194.93 C 160.60 192.39 158.04 189.92 155.28 187.70 C 154.55 187.09 153.86 186.43 153.24 185.72 C 152.83 184.81 152.17 184.16 151.26 183.77 C 150.49 183.19 149.81 182.51 149.23 181.74 C 148.84 180.82 148.18 180.16 147.26 179.77 C 146.49 179.19 145.81 178.51 145.23 177.74 C 144.84 176.81 144.18 176.16 143.26 175.77 C 142.48 175.19 141.81 174.51 141.23 173.74 C 140.83 172.81 140.18 172.16 139.26 171.77 C 138.49 171.19 137.81 170.51 137.23 169.74 C 136.84 168.82 136.19 168.16 135.28 167.77 C 134.49 167.18 133.80 166.49 133.20 165.72 C 132.96 165.26 132.49 164.34 132.25 163.88 C 131.91 163.68 131.24 163.28 130.91 163.08 C 130.19 159.94 129.92 156.74 129.80 153.53 L 130.35 152.91 C 131.34 151.81 132.16 150.58 133.06 149.41 C 133.70 148.59 134.44 147.86 135.25 147.22 C 136.17 146.82 136.82 146.16 137.22 145.24 C 137.80 144.47 138.47 143.80 139.24 143.22 C 140.16 142.82 140.82 142.17 141.22 141.25 C 141.80 140.47 142.47 139.80 143.24 139.22 C 144.16 138.82 144.82 138.16 145.22 137.24 C 145.79 136.47 146.47 135.80 147.24 135.22 C 148.16 134.83 148.82 134.17 149.22 133.26 C 149.81 132.48 150.48 131.79 151.25 131.18 C 151.71 130.93 152.62 130.43 153.08 130.18 Z" />
</g>
<g id="#15151580">
<path fill="#151515" opacity="0.50" d=" M 147.24 135.22 C 146.79 133.44 147.45 132.79 149.22 133.26 C 148.82 134.17 148.16 134.83 147.24 135.22 Z" />
<path fill="#151515" opacity="0.50" d=" M 346.24 135.22 C 345.78 133.44 346.44 132.79 348.22 133.26 C 347.81 134.17 347.15 134.83 346.24 135.22 Z" />
<path fill="#151515" opacity="0.50" d=" M 167.77 135.27 C 169.54 134.81 170.20 135.46 169.74 137.23 C 168.82 136.84 168.16 136.19 167.77 135.27 Z" />
<path fill="#151515" opacity="0.50" d=" M 143.24 139.22 C 142.79 137.45 143.44 136.79 145.22 137.24 C 144.82 138.16 144.16 138.82 143.24 139.22 Z" />
<path fill="#151515" opacity="0.50" d=" M 342.24 139.22 C 341.78 137.45 342.44 136.79 344.21 137.24 C 343.82 138.16 343.16 138.82 342.24 139.22 Z" />
<path fill="#151515" opacity="0.50" d=" M 171.77 139.27 C 173.54 138.80 174.19 139.46 173.74 141.23 C 172.82 140.84 172.16 140.18 171.77 139.27 Z" />
<path fill="#151515" opacity="0.50" d=" M 139.24 143.22 C 138.79 141.45 139.45 140.79 141.22 141.25 C 140.82 142.17 140.16 142.82 139.24 143.22 Z" />
<path fill="#151515" opacity="0.50" d=" M 338.25 143.22 C 337.78 141.45 338.44 140.79 340.22 141.24 C 339.82 142.16 339.16 142.82 338.25 143.22 Z" />
<path fill="#151515" opacity="0.50" d=" M 175.77 143.26 C 177.54 142.81 178.20 143.46 177.74 145.23 C 176.82 144.84 176.16 144.18 175.77 143.26 Z" />
<path fill="#151515" opacity="0.50" d=" M 135.25 147.22 C 134.79 145.45 135.44 144.79 137.22 145.24 C 136.82 146.16 136.17 146.82 135.25 147.22 Z" />
<path fill="#151515" opacity="0.50" d=" M 334.24 147.21 C 333.78 145.44 334.44 144.79 336.22 145.24 C 335.82 146.16 335.16 146.82 334.24 147.21 Z" />
<path fill="#151515" opacity="0.50" d=" M 179.77 147.26 C 181.54 146.81 182.20 147.46 181.74 149.23 C 180.81 148.84 180.16 148.18 179.77 147.26 Z" />
<path fill="#151515" opacity="0.50" d=" M 130.35 152.91 C 128.72 151.37 131.17 147.96 133.06 149.41 C 132.16 150.58 131.34 151.81 130.35 152.91 Z" />
<path fill="#151515" opacity="0.50" d=" M 330.24 151.21 C 329.79 149.44 330.44 148.79 332.22 149.24 C 331.82 150.16 331.16 150.82 330.24 151.21 Z" />
<path fill="#151515" opacity="0.50" d=" M 183.77 151.26 C 185.54 150.80 186.19 151.46 185.72 153.23 C 184.81 152.83 184.16 152.17 183.77 151.26 Z" />
<path fill="#151515" opacity="0.50" d=" M 326.24 155.21 C 325.79 153.44 326.45 152.78 328.22 153.25 C 327.82 154.16 327.16 154.82 326.24 155.21 Z" />
<path fill="#151515" opacity="0.50" d=" M 322.24 159.22 C 321.79 157.45 322.44 156.79 324.22 157.25 C 323.82 158.16 323.16 158.82 322.24 159.22 Z" />
<path fill="#151515" opacity="0.50" d=" M 318.24 163.22 C 317.78 161.45 318.44 160.79 320.21 161.25 C 319.82 162.17 319.16 162.82 318.24 163.22 Z" />
<path fill="#151515" opacity="0.50" d=" M 314.24 167.22 C 313.78 165.45 314.44 164.79 316.22 165.24 C 315.82 166.16 315.16 166.82 314.24 167.22 Z" />
<path fill="#151515" opacity="0.50" d=" M 376.79 168.75 C 377.17 167.83 377.82 167.18 378.74 166.78 C 379.21 168.55 378.55 169.20 376.79 168.75 Z" />
<path fill="#151515" opacity="0.50" d=" M 135.28 167.77 C 136.19 168.16 136.84 168.82 137.23 169.74 C 135.45 170.19 134.80 169.54 135.28 167.77 Z" />
<path fill="#151515" opacity="0.50" d=" M 310.24 171.22 C 309.79 169.44 310.45 168.79 312.22 169.25 C 311.82 170.17 311.16 170.82 310.24 171.22 Z" />
<path fill="#151515" opacity="0.50" d=" M 372.79 172.76 C 373.17 171.83 373.83 171.18 374.76 170.79 C 375.21 172.55 374.55 173.21 372.79 172.76 Z" />
<path fill="#151515" opacity="0.50" d=" M 139.26 171.77 C 140.18 172.16 140.83 172.81 141.23 173.74 C 139.45 174.19 138.80 173.53 139.26 171.77 Z" />
<path fill="#151515" opacity="0.50" d=" M 306.25 175.22 C 305.79 173.44 306.45 172.79 308.22 173.24 C 307.82 174.16 307.16 174.82 306.25 175.22 Z" />
<path fill="#151515" opacity="0.50" d=" M 368.79 176.75 C 369.17 175.83 369.83 175.17 370.75 174.79 C 371.20 176.55 370.55 177.21 368.79 176.75 Z" />
<path fill="#151515" opacity="0.50" d=" M 143.26 175.77 C 144.18 176.16 144.84 176.81 145.23 177.74 C 143.46 178.19 142.80 177.54 143.26 175.77 Z" />
<path fill="#151515" opacity="0.50" d=" M 302.24 179.21 C 301.79 177.44 302.45 176.78 304.22 177.24 C 303.82 178.16 303.16 178.82 302.24 179.21 Z" />
<path fill="#151515" opacity="0.50" d=" M 364.79 180.75 C 365.17 179.83 365.83 179.17 366.75 178.79 C 367.21 180.55 366.55 181.21 364.79 180.75 Z" />
<path fill="#151515" opacity="0.50" d=" M 147.26 179.77 C 148.18 180.16 148.84 180.82 149.23 181.74 C 147.46 182.19 146.80 181.54 147.26 179.77 Z" />
<path fill="#151515" opacity="0.50" d=" M 298.24 183.22 C 297.78 181.45 298.44 180.79 300.22 181.24 C 299.82 182.16 299.16 182.82 298.24 183.22 Z" />
<path fill="#151515" opacity="0.50" d=" M 360.79 184.76 C 361.17 183.83 361.83 183.18 362.75 182.79 C 363.21 184.55 362.55 185.21 360.79 184.76 Z" />
<path fill="#151515" opacity="0.50" d=" M 151.26 183.77 C 152.17 184.16 152.83 184.81 153.24 185.72 C 151.46 186.19 150.80 185.54 151.26 183.77 Z" />
<path fill="#151515" opacity="0.50" d=" M 294.24 187.22 C 293.78 185.45 294.44 184.79 296.22 185.24 C 295.82 186.16 295.16 186.82 294.24 187.22 Z" />
<path fill="#151515" opacity="0.50" d=" M 356.79 188.75 C 357.17 187.83 357.83 187.17 358.75 186.78 C 359.21 188.55 358.55 189.21 356.79 188.75 Z" />
<path fill="#151515" opacity="0.50" d=" M 290.24 191.21 C 289.79 189.44 290.45 188.78 292.22 189.25 C 291.82 190.16 291.16 190.82 290.24 191.21 Z" />
<path fill="#151515" opacity="0.50" d=" M 352.79 192.75 C 353.17 191.83 353.83 191.17 354.75 190.78 C 355.21 192.55 354.55 193.21 352.79 192.75 Z" />
<path fill="#151515" opacity="0.50" d=" M 286.25 195.22 C 285.78 193.45 286.44 192.79 288.21 193.24 C 287.82 194.16 287.16 194.82 286.25 195.22 Z" />
<path fill="#151515" opacity="0.50" d=" M 348.79 196.75 C 349.17 195.83 349.83 195.17 350.75 194.79 C 351.21 196.55 350.55 197.21 348.79 196.75 Z" />
<path fill="#151515" opacity="0.50" d=" M 282.24 199.21 C 281.79 197.44 282.44 196.78 284.22 197.24 C 283.82 198.16 283.16 198.82 282.24 199.21 Z" />
<path fill="#151515" opacity="0.50" d=" M 344.79 200.76 C 345.17 199.83 345.83 199.17 346.75 198.78 C 347.21 200.55 346.55 201.21 344.79 200.76 Z" />
<path fill="#151515" opacity="0.50" d=" M 278.24 203.22 C 277.79 201.44 278.45 200.79 280.22 201.25 C 279.82 202.16 279.16 202.82 278.24 203.22 Z" />
<path fill="#151515" opacity="0.50" d=" M 340.79 204.75 C 341.17 203.83 341.83 203.17 342.76 202.79 C 343.21 204.55 342.55 205.21 340.79 204.75 Z" />
<path fill="#151515" opacity="0.50" d=" M 274.24 207.22 C 273.78 205.44 274.44 204.79 276.22 205.24 C 275.82 206.16 275.16 206.82 274.24 207.22 Z" />
<path fill="#151515" opacity="0.50" d=" M 336.79 208.75 C 337.17 207.83 337.83 207.17 338.75 206.78 C 339.21 208.55 338.55 209.21 336.79 208.75 Z" />
<path fill="#151515" opacity="0.50" d=" M 270.25 211.22 C 269.78 209.45 270.44 208.79 272.22 209.24 C 271.82 210.16 271.16 210.82 270.25 211.22 Z" />
<path fill="#151515" opacity="0.50" d=" M 332.79 212.75 C 333.17 211.83 333.83 211.17 334.76 210.79 C 335.21 212.55 334.55 213.21 332.79 212.75 Z" />
<path fill="#151515" opacity="0.50" d=" M 266.24 215.22 C 265.79 213.45 266.44 212.79 268.22 213.25 C 267.82 214.16 267.16 214.82 266.24 215.22 Z" />
<path fill="#151515" opacity="0.50" d=" M 328.78 216.75 C 329.17 215.83 329.83 215.17 330.76 214.79 C 331.20 216.55 330.55 217.21 328.78 216.75 Z" />
<path fill="#151515" opacity="0.50" d=" M 262.38 219.36 C 261.80 217.60 262.40 216.90 264.19 217.24 C 263.86 218.19 263.26 218.89 262.38 219.36 Z" />
<path fill="#151515" opacity="0.50" d=" M 324.79 220.75 C 325.17 219.83 325.83 219.17 326.75 218.78 C 327.21 220.55 326.55 221.21 324.79 220.75 Z" />
<path fill="#151515" opacity="0.50" d=" M 320.79 224.76 C 321.17 223.83 321.83 223.17 322.75 222.78 C 323.21 224.55 322.55 225.20 320.79 224.76 Z" />
<path fill="#151515" opacity="0.50" d=" M 316.79 228.76 C 317.17 227.83 317.83 227.18 318.75 226.79 C 319.21 228.55 318.55 229.21 316.79 228.76 Z" />
<path fill="#151515" opacity="0.50" d=" M 312.79 232.76 C 313.17 231.83 313.83 231.18 314.75 230.78 C 315.21 232.55 314.56 233.21 312.79 232.76 Z" />
<path fill="#151515" opacity="0.50" d=" M 308.79 236.75 C 309.17 235.83 309.83 235.17 310.76 234.79 C 311.21 236.55 310.55 237.21 308.79 236.75 Z" />
<path fill="#151515" opacity="0.50" d=" M 304.78 240.75 C 305.17 239.83 305.83 239.17 306.75 238.79 C 307.21 240.55 306.55 241.21 304.78 240.75 Z" />
<path fill="#151515" opacity="0.50" d=" M 300.79 244.75 C 301.18 243.83 301.83 243.17 302.76 242.79 C 303.21 244.55 302.55 245.21 300.79 244.75 Z" />
<path fill="#151515" opacity="0.50" d=" M 296.78 248.75 C 297.17 247.83 297.83 247.17 298.75 246.79 C 299.21 248.55 298.55 249.21 296.78 248.75 Z" />
<path fill="#151515" opacity="0.50" d=" M 292.70 252.77 C 293.12 251.85 293.81 251.19 294.75 250.80 C 295.15 252.57 294.46 253.23 292.70 252.77 Z" />
<path fill="#151515" opacity="0.50" d=" M 292.76 260.24 C 294.50 259.81 295.15 260.47 294.73 262.22 C 293.76 261.85 293.11 261.19 292.76 260.24 Z" />
<path fill="#151515" opacity="0.50" d=" M 216.22 265.20 C 215.85 263.39 216.56 262.78 218.33 263.38 C 217.84 264.23 217.14 264.84 216.22 265.20 Z" />
<path fill="#151515" opacity="0.50" d=" M 296.77 264.26 C 298.54 263.80 299.19 264.46 298.73 266.23 C 297.81 265.83 297.16 265.18 296.77 264.26 Z" />
<path fill="#151515" opacity="0.50" d=" M 212.24 269.22 C 211.79 267.44 212.45 266.79 214.22 267.25 C 213.82 268.16 213.16 268.82 212.24 269.22 Z" />
<path fill="#151515" opacity="0.50" d=" M 300.77 268.26 C 302.53 267.80 303.19 268.46 302.73 270.23 C 301.81 269.83 301.15 269.18 300.77 268.26 Z" />
<path fill="#151515" opacity="0.50" d=" M 208.24 273.22 C 207.78 271.45 208.44 270.79 210.21 271.25 C 209.82 272.16 209.16 272.82 208.24 273.22 Z" />
<path fill="#151515" opacity="0.50" d=" M 304.77 272.26 C 306.54 271.80 307.19 272.46 306.74 274.23 C 305.81 273.83 305.16 273.18 304.77 272.26 Z" />
<path fill="#151515" opacity="0.50" d=" M 204.24 277.21 C 203.79 275.44 204.45 274.78 206.22 275.24 C 205.82 276.16 205.16 276.82 204.24 277.21 Z" />
<path fill="#151515" opacity="0.50" d=" M 308.77 276.26 C 310.54 275.80 311.19 276.46 310.74 278.23 C 309.81 277.83 309.16 277.18 308.77 276.26 Z" />
<path fill="#151515" opacity="0.50" d=" M 200.25 281.22 C 199.79 279.45 200.44 278.79 202.22 279.25 C 201.82 280.16 201.16 280.82 200.25 281.22 Z" />
<path fill="#151515" opacity="0.50" d=" M 312.78 280.27 C 314.55 279.79 315.20 280.45 314.73 282.23 C 313.82 281.83 313.17 281.17 312.78 280.27 Z" />
<path fill="#151515" opacity="0.50" d=" M 196.24 285.21 C 195.79 283.44 196.44 282.78 198.22 283.24 C 197.82 284.16 197.16 284.82 196.24 285.21 Z" />
<path fill="#151515" opacity="0.50" d=" M 192.25 289.22 C 191.79 287.45 192.44 286.79 194.21 287.24 C 193.82 288.16 193.16 288.82 192.25 289.22 Z" />
<path fill="#151515" opacity="0.50" d=" M 188.24 293.22 C 187.78 291.44 188.44 290.79 190.21 291.25 C 189.82 292.16 189.16 292.82 188.24 293.22 Z" />
<path fill="#151515" opacity="0.50" d=" M 250.80 294.74 C 251.16 293.77 251.81 293.11 252.77 292.76 C 253.20 294.50 252.54 295.16 250.80 294.74 Z" />
<path fill="#151515" opacity="0.50" d=" M 261.33 293.73 C 262.21 294.16 262.85 294.83 263.23 295.75 C 261.44 296.18 260.81 295.51 261.33 293.73 Z" />
<path fill="#151515" opacity="0.50" d=" M 184.24 297.22 C 183.79 295.44 184.45 294.79 186.22 295.25 C 185.82 296.16 185.16 296.82 184.24 297.22 Z" />
<path fill="#151515" opacity="0.50" d=" M 246.78 298.75 C 247.17 297.83 247.83 297.17 248.75 296.79 C 249.21 298.55 248.55 299.21 246.78 298.75 Z" />
<path fill="#151515" opacity="0.50" d=" M 265.27 297.77 C 266.18 298.16 266.84 298.81 267.23 299.74 C 265.46 300.19 264.80 299.53 265.27 297.77 Z" />
<path fill="#151515" opacity="0.50" d=" M 180.24 301.21 C 179.79 299.44 180.45 298.78 182.22 299.25 C 181.82 300.16 181.16 300.82 180.24 301.21 Z" />
<path fill="#151515" opacity="0.50" d=" M 242.79 302.75 C 243.18 301.83 243.83 301.17 244.76 300.79 C 245.21 302.55 244.55 303.21 242.79 302.75 Z" />
<path fill="#151515" opacity="0.50" d=" M 269.26 301.77 C 270.18 302.16 270.84 302.81 271.23 303.74 C 269.46 304.19 268.80 303.53 269.26 301.77 Z" />
<path fill="#151515" opacity="0.50" d=" M 176.25 305.22 C 175.79 303.44 176.45 302.78 178.22 303.24 C 177.82 304.16 177.16 304.82 176.25 305.22 Z" />
<path fill="#151515" opacity="0.50" d=" M 238.79 306.75 C 239.18 305.83 239.83 305.17 240.76 304.78 C 241.21 306.55 240.55 307.21 238.79 306.75 Z" />
<path fill="#151515" opacity="0.50" d=" M 273.26 305.77 C 274.18 306.15 274.84 306.81 275.23 307.73 C 273.46 308.19 272.80 307.53 273.26 305.77 Z" />
<path fill="#151515" opacity="0.50" d=" M 172.25 309.22 C 171.79 307.44 172.44 306.79 174.22 307.24 C 173.82 308.16 173.16 308.82 172.25 309.22 Z" />
<path fill="#151515" opacity="0.50" d=" M 234.78 310.76 C 235.17 309.83 235.83 309.18 236.75 308.79 C 237.21 310.55 236.55 311.21 234.78 310.76 Z" />
<path fill="#151515" opacity="0.50" d=" M 277.26 309.77 C 278.18 310.16 278.84 310.81 279.24 311.72 C 277.47 312.19 276.81 311.54 277.26 309.77 Z" />
<path fill="#151515" opacity="0.50" d=" M 168.24 313.21 C 167.79 311.44 168.45 310.78 170.22 311.24 C 169.82 312.16 169.16 312.82 168.24 313.21 Z" />
<path fill="#151515" opacity="0.50" d=" M 230.78 314.75 C 231.17 313.83 231.83 313.17 232.75 312.79 C 233.20 314.55 232.55 315.21 230.78 314.75 Z" />
<path fill="#151515" opacity="0.50" d=" M 164.24 317.22 C 163.79 315.44 164.45 314.78 166.22 315.24 C 165.82 316.16 165.16 316.82 164.24 317.22 Z" />
<path fill="#151515" opacity="0.50" d=" M 226.79 318.75 C 227.18 317.83 227.83 317.17 228.76 316.78 C 229.21 318.55 228.55 319.20 226.79 318.75 Z" />
<path fill="#151515" opacity="0.50" d=" M 160.24 321.22 C 159.79 319.44 160.45 318.78 162.22 319.24 C 161.82 320.16 161.16 320.82 160.24 321.22 Z" />
<path fill="#151515" opacity="0.50" d=" M 222.79 322.75 C 223.18 321.83 223.83 321.17 224.76 320.79 C 225.21 322.55 224.55 323.21 222.79 322.75 Z" />
<path fill="#151515" opacity="0.50" d=" M 156.25 325.22 C 155.79 323.44 156.44 322.79 158.21 323.24 C 157.82 324.16 157.16 324.82 156.25 325.22 Z" />
<path fill="#151515" opacity="0.50" d=" M 218.78 326.76 C 219.17 325.83 219.83 325.17 220.75 324.79 C 221.21 326.55 220.55 327.21 218.78 326.76 Z" />
<path fill="#151515" opacity="0.50" d=" M 152.24 329.22 C 151.79 327.44 152.45 326.78 154.22 327.25 C 153.82 328.16 153.16 328.82 152.24 329.22 Z" />
<path fill="#151515" opacity="0.50" d=" M 214.78 330.75 C 215.17 329.83 215.83 329.17 216.75 328.78 C 217.21 330.55 216.55 331.20 214.78 330.75 Z" />
<path fill="#151515" opacity="0.50" d=" M 148.25 333.22 C 147.79 331.45 148.45 330.79 150.22 331.24 C 149.82 332.16 149.17 332.82 148.25 333.22 Z" />
<path fill="#151515" opacity="0.50" d=" M 210.79 334.75 C 211.18 333.83 211.83 333.17 212.76 332.79 C 213.21 334.55 212.55 335.21 210.79 334.75 Z" />
<path fill="#151515" opacity="0.50" d=" M 144.24 337.22 C 143.79 335.44 144.44 334.79 146.21 335.25 C 145.82 336.16 145.16 336.82 144.24 337.22 Z" />
<path fill="#151515" opacity="0.50" d=" M 206.78 338.75 C 207.17 337.83 207.83 337.17 208.75 336.79 C 209.21 338.55 208.55 339.21 206.78 338.75 Z" />
<path fill="#151515" opacity="0.50" d=" M 140.25 341.21 C 139.79 339.44 140.44 338.78 142.22 339.24 C 141.82 340.16 141.16 340.81 140.25 341.21 Z" />
<path fill="#151515" opacity="0.50" d=" M 202.78 342.75 C 203.17 341.83 203.83 341.17 204.75 340.79 C 205.21 342.55 204.55 343.21 202.78 342.75 Z" />
<path fill="#151515" opacity="0.50" d=" M 136.24 345.22 C 135.79 343.44 136.44 342.79 138.22 343.24 C 137.82 344.16 137.16 344.82 136.24 345.22 Z" />
<path fill="#151515" opacity="0.50" d=" M 198.79 346.75 C 199.18 345.83 199.83 345.17 200.75 344.79 C 201.21 346.55 200.55 347.21 198.79 346.75 Z" />
<path fill="#151515" opacity="0.50" d=" M 132.23 349.22 C 131.78 347.44 132.45 346.78 134.22 347.25 C 133.81 348.17 133.15 348.82 132.23 349.22 Z" />
<path fill="#151515" opacity="0.50" d=" M 194.79 350.76 C 195.17 349.83 195.83 349.17 196.75 348.78 C 197.21 350.54 196.56 351.20 194.79 350.76 Z" />
<path fill="#151515" opacity="0.50" d=" M 190.79 354.75 C 191.18 353.83 191.83 353.17 192.76 352.79 C 193.21 354.55 192.55 355.21 190.79 354.75 Z" />
<path fill="#151515" opacity="0.50" d=" M 186.79 358.76 C 187.18 357.83 187.83 357.17 188.75 356.79 C 189.21 358.55 188.55 359.21 186.79 358.76 Z" />
<path fill="#151515" opacity="0.50" d=" M 182.79 362.75 C 183.17 361.83 183.83 361.17 184.75 360.78 C 185.21 362.55 184.55 363.20 182.79 362.75 Z" />
<path fill="#151515" opacity="0.50" d=" M 178.79 366.75 C 179.17 365.83 179.83 365.17 180.75 364.78 C 181.21 366.54 180.55 367.20 178.79 366.75 Z" />
<path fill="#151515" opacity="0.50" d=" M 376.79 367.76 C 377.17 366.84 377.82 366.18 378.74 365.78 C 379.21 367.54 378.56 368.20 376.79 367.76 Z" />
<path fill="#151515" opacity="0.50" d=" M 174.79 370.75 C 175.18 369.83 175.83 369.17 176.76 368.79 C 177.21 370.55 176.55 371.21 174.79 370.75 Z" />
<path fill="#151515" opacity="0.50" d=" M 372.78 371.75 C 373.17 370.83 373.83 370.17 374.75 369.79 C 375.20 371.55 374.55 372.21 372.78 371.75 Z" />
<path fill="#151515" opacity="0.50" d=" M 170.79 374.75 C 171.18 373.83 171.83 373.17 172.75 372.78 C 173.21 374.55 172.55 375.20 170.79 374.75 Z" />
<path fill="#151515" opacity="0.50" d=" M 368.79 375.75 C 369.17 374.83 369.83 374.17 370.75 373.78 C 371.21 375.55 370.55 376.20 368.79 375.75 Z" />
<path fill="#151515" opacity="0.50" d=" M 166.77 378.73 C 167.18 377.82 167.84 377.17 168.76 376.79 C 169.20 378.55 168.54 379.20 166.77 378.73 Z" />
<path fill="#151515" opacity="0.50" d=" M 364.81 379.77 C 365.18 378.84 365.82 378.18 366.74 377.78 C 367.23 379.54 366.58 380.20 364.81 379.77 Z" />
</g>
</svg>
