<?xml version="1.0" encoding="iso-8859-1"?>
<!-- Generator: Adobe Illustrator 17.1.0, SVG Export Plug-In . SVG Version: 6.00 Build 0)  -->
<!DOCTYPE svg PUBLIC "-//W3C//DTD SVG 1.1//EN" "http://www.w3.org/Graphics/SVG/1.1/DTD/svg11.dtd">
<svg version="1.1" id="Capa_1" xmlns="http://www.w3.org/2000/svg" xmlns:xlink="http://www.w3.org/1999/xlink" x="0px" y="0px"
	 viewBox="0 0 187.5 187.5" style="enable-background:new 0 0 187.5 187.5;" xml:space="preserve">
<path d="M113.083,115.071h8.193L93.75,153.051l-27.527-37.979h8.193c2.761,0,5-2.238,5-5V74.286h28.667v35.785
	C108.083,112.833,110.322,115.071,113.083,115.071z M163,30.25V182.5c0,2.762-2.239,5-5,5H29.5c-2.761,0-5-2.238-5-5v-152v-0.25V5
	c0-2.762,2.239-5,5-5H158c2.761,0,5,2.238,5,5s-2.239,5-5,5h-5.5v15.25h5.5C160.761,25.25,163,27.488,163,30.25z M135.529,107.799
	c-0.854-1.674-2.575-2.728-4.454-2.728h-12.992V69.286c0-2.762-2.239-5-5-5H74.417c-2.761,0-5,2.238-5,5v35.785H56.424
	c-1.879,0-3.6,1.054-4.454,2.728c-0.854,1.674-0.698,3.686,0.405,5.207l37.326,51.5c0.94,1.297,2.446,2.065,4.048,2.065
	s3.108-0.769,4.048-2.065l37.326-51.5C136.227,111.484,136.383,109.473,135.529,107.799z M142.5,10h-108v15.25h108V10z"/>
<g>
</g>
<g>
</g>
<g>
</g>
<g>
</g>
<g>
</g>
<g>
</g>
<g>
</g>
<g>
</g>
<g>
</g>
<g>
</g>
<g>
</g>
<g>
</g>
<g>
</g>
<g>
</g>
<g>
</g>
</svg>
